<?xml version="1.0" encoding="UTF-8" standalone="no"?>
<svg
   width="16"
   height="16"
   fill="currentColor"
   class="bi bi-reply-all-fill"
   viewBox="0 0 16 16"
   version="1.1"
   id="svg2"
   sodipodi:docname="forward-all-fill.svg"
   inkscape:version="1.4.4 (dcaf3e7, 2026-05-05)"
   xmlns:inkscape="http://www.inkscape.org/namespaces/inkscape"
   xmlns:sodipodi="http://sodipodi.sourceforge.net/DTD/sodipodi-0.dtd"
   xmlns="http://www.w3.org/2000/svg"
   xmlns:svg="http://www.w3.org/2000/svg">
  <defs
     id="defs2" />
  <sodipodi:namedview
     id="namedview2"
     pagecolor="#ffffff"
     bordercolor="#000000"
     borderopacity="0.25"
     inkscape:showpageshadow="2"
     inkscape:pageopacity="0.0"
     inkscape:pagecheckerboard="0"
     inkscape:deskcolor="#d1d1d1"
     showgrid="false"
     inkscape:zoom="50.4375"
     inkscape:cx="8"
     inkscape:cy="8"
     inkscape:window-width="1920"
     inkscape:window-height="1009"
     inkscape:window-x="1912"
     inkscape:window-y="-8"
     inkscape:window-maximized="1"
     inkscape:current-layer="svg2" />
  <path
     d="M 8.0783549,11.9 12.646355,8.62 a 0.72,0.72 0 0 0 0,-1.238 L 8.0783549,4.1 a 0.716,0.716 0 0 0 -1.079,0.619 V 6 c -1.5,0 -5.99999998,0 -6.99999997905,8 C 2.4993549,9.5 6.9993549,10 6.9993549,10 v 1.281 c 0,0.56 0.606,0.898 1.079,0.62 z"
     id="path1" />
  <path
     d="m 10.867355,4.293 a 0.5,0.5 0 0 0 0.106,0.7 l 4.012,2.952 0.042,0.028 a 0.147,0.147 0 0 1 0,0.252 l -0.042,0.028 -4.012,2.954 a 0.5,0.5 0 1 0 0.593,0.805 l 3.994,-2.939 a 1.147,1.147 0 0 0 0,-1.946 l -3.994,-2.94 a 0.5,0.5 0 0 0 -0.699,0.106"
     id="path2" />
</svg>
